<svg width="19" height="14" viewBox="0 0 19 14" xmlns="http://www.w3.org/2000/svg"><path d="M16,5 L16,2 L14,2 L14,5 L11,5 L11,7 L14,7 L14,10 L16,10 L16,7 L19,7 L19,5 L16,5 Z M4.21278471,13.2173279 C4.21344203,13.4210003 4.29852035,13.6152829 4.447752,13.7538931 C4.59698368,13.8925033 4.79700821,13.9630315 5.00017514,13.9486763 C5.20260653,13.9603467 5.40103075,13.8888849 5.54953735,13.7508253 C5.69804403,13.6127657 5.78376442,13.4200717 5.786865,13.2173279 C5.786865,11.8485015 6.73642703,10.7280113 7.74168082,9.54202199 C8.85201342,8.23203971 9.9998241,6.87722382 9.9998241,5.04184757 C10.0148585,3.24561164 9.06519921,1.57935055 7.51207057,0.676864524 C5.958942,-0.225621508 4.04105803,-0.225621508 2.48792942,0.676864524 C0.93480081,1.57935055 -0.0148585204,3.24561164 0.000175901018,5.04184757 C0.000175901018,6.87722382 1.14833685,8.23203971 2.25901969,9.54202199 C3.26322269,10.7280113 4.21278471,11.8485015 4.21278471,13.2173279 Z" fill="#787878"/></svg>