<svg xmlns="http://www.w3.org/2000/svg" width="20" height="16" viewBox="0 0 20 16">
    <path  fill="#1F46D5"
           d="M0 15C0 14.4477153.44771525 14 1 14L19 14C19.5522847 14 20 14.4477153 20 15 20 15.5522847 19.5522847 16 19 16L1 16C.44771525 16 0 15.5522847 0 15M0 8C0 7.44771525.44771525 7 1 7L19 7C19.5522847 7 20 7.44771525 20 8 20 8.55228475 19.5522847 9 19 9L1 9C.44771525 9 0 8.55228475 0 8M0 1C0 .44771525.44771525 0 1 0L19 0C19.5522847 0 20 .44771525 20 1 20 1.55228475 19.5522847 2 19 2L1 2C.44771525 2 0 1.55228475 0 1"/>
</svg>
