<svg xmlns="http://www.w3.org/2000/svg" width="16" height="23" viewBox="0 0 16 23">
    <path fill="#1F46D5"
          d="M7.904,22.449 C8.296,22.449 8.646,22.219 8.646,21.802 C8.646,16.597 15.808,13.584 15.808,7.904 C15.808,3.53874134 12.2692587,1.19949929e-24 7.904,1.19949929e-24 C3.53874134,1.19949929e-24 0,3.53874134 0,7.904 C0,13.583 7.162,16.597 7.162,21.802 C7.162,22.227 7.511,22.449 7.904,22.449 L7.904,22.449 Z M4.625,8.043 C4.625,6.23150602 6.09350602,4.763 7.905,4.763 C9.71649398,4.763 11.185,6.23150602 11.185,8.043 C11.185,9.85449398 9.71649398,11.323 7.905,11.323 C6.09350602,11.323 4.625,9.85449398 4.625,8.043 Z"/>
</svg>
